{
  "title": "The Hunger Games (2012) DVDRip XviD-MAX",
  "uid": 7502889,
  "size": 1401805157,
  "categoryP": "video",
  "categoryS": "movies",
  "magnet": "?xt=urn:btih:d9f7719922d00d4f2ae59c514dc2aee7a2938dc9&amp;dn=The+Hunger+Games+%282012%29+DVDRip+XviD-MAX&amp;tr=udp%3A%2F%2Ftracker.openbittorrent.com%3A80&amp;tr=udp%3A%2F%2Fopen.demonii.com%3A1337&amp;tr=udp%3A%2F%2Ftracker.coppersurfer.tk%3A6969&amp;tr=udp%3A%2F%2Fexodus.desync.com%3A6969",
  "seeders": 51,
  "leechers": 7,
  "uploader": "extremezone",
  "files": -1,
  "time": 1344076897,
  "description": " &lt;a href=&quot;http://leetleech.org/images/10326846817633006303.jpg&quot; rel=&quot;nofollow&quot; target=&quot;_NEW&quot;&gt;http://leetleech.org/images/10326846817633006303.jpg&lt;/a&gt;\n\nScreens:\n &lt;a href=&quot;\nhttp://leetleech.org/images/16425124493515553758.jpg&quot; rel=&quot;nofollow&quot; target=&quot;_NEW&quot;&gt;\nhttp://leetleech.org/images/16425124493515553758.jpg&lt;/a&gt; &lt;a href=&quot;\nhttp://leetleech.org/images/77014626292067876857.jpg&quot; rel=&quot;nofollow&quot; target=&quot;_NEW&quot;&gt;\nhttp://leetleech.org/images/77014626292067876857.jpg&lt;/a&gt; &lt;a href=&quot;\nhttp://leetleech.org/images/77390943482561529828.jpg&quot; rel=&quot;nofollow&quot; target=&quot;_NEW&quot;&gt;\nhttp://leetleech.org/images/77390943482561529828.jpg&lt;/a&gt; &lt;a href=&quot;\nhttp://leetleech.org/images/47144275460032801198.jpg&quot; rel=&quot;nofollow&quot; target=&quot;_NEW&quot;&gt;\nhttp://leetleech.org/images/47144275460032801198.jpg&lt;/a&gt;\n\nAlternative:\n &lt;a href=&quot;\nhttp://www.postimg.com/image/78000/photo-77646.jpg&quot; rel=&quot;nofollow&quot; target=&quot;_NEW&quot;&gt;\nhttp://www.postimg.com/image/78000/photo-77646.jpg&lt;/a&gt; &lt;a href=&quot;\nhttp://www.postimg.com/image/78000/photo-77647.jpg&quot; rel=&quot;nofollow&quot; target=&quot;_NEW&quot;&gt;\nhttp://www.postimg.com/image/78000/photo-77647.jpg&lt;/a&gt; &lt;a href=&quot;\nhttp://www.postimg.com/image/78000/photo-77648.jpg&quot; rel=&quot;nofollow&quot; target=&quot;_NEW&quot;&gt;\nhttp://www.postimg.com/image/78000/photo-77648.jpg&lt;/a&gt; &lt;a href=&quot;\nhttp://www.postimg.com/image/78000/photo-77649.jpg&quot; rel=&quot;nofollow&quot; target=&quot;_NEW&quot;&gt;\nhttp://www.postimg.com/image/78000/photo-77649.jpg&lt;/a&gt;\n\nScreenCaps:\n &lt;a href=&quot;\nhttp://www.postimg.com/image/78000/photo-77651.jpg&quot; rel=&quot;nofollow&quot; target=&quot;_NEW&quot;&gt;\nhttp://www.postimg.com/image/78000/photo-77651.jpg&lt;/a&gt;\n\nThe Hunger Games (2012) DVDRip XviD-MAX\nFormat                                   : AVI\nFormat/Info                              : Audio Video Interleave\nFormat profile                           : OpenDML\nFormat settings                          : rec\nFile size                                : 1.30 GiB\nDuration                                 : 2h 24mn\nOverall bit rate                         : 1 293 Kbps\nWriting application                      : VirtualDubMod 1.5.10.2 (build 2542/release)\nWriting library                          : VirtualDubMod build 2542/release\nOriginal source form                     : MAX TORRENTZ\nCopyright                                : SIGISMUNT\n\nVideo\nID                                       : 0\nFormat                                   : MPEG-4 Visual\nFormat profile                           : Advanced Simple@L5\nFormat settings, BVOP                    : 2\nFormat settings, QPel                    : No\nFormat settings, GMC                     : No warppoints\nFormat settings, Matrix                  : Default (H.263)\nCodec ID                                 : XVID\nCodec ID/Hint                            : XviD\nDuration                                 : 2h 24mn\nBit rate                                 : 904 Kbps\nWidth                                    : 624 pixels\nHeight                                   : 256 pixels\nDisplay aspect ratio                     : 2.40:1\nFrame rate                               : 23.976 fps\nColor space                              : YUV\nChroma subsampling                       : 4:2:0\nBit depth                                : 8 bits\nScan type                                : Progressive\nCompression mode                         : Lossy\nBits/(Pixel*Frame)                       : 0.236\nStream size                              : 931 MiB (70%)\nWriting library                          : XviD 1.2.1 (UTC 2008-12-04)\n\nAudio\nID                                       : 1\nFormat                                   : AC-3\nFormat/Info                              : Audio Coding 3\nMode extension                           : CM (complete main)\nFormat settings, Endianness              : Big\nCodec ID                                 : 2000\nDuration                                 : 2h 24mn\nBit rate mode                            : Constant\nBit rate                                 : 384 Kbps\nChannel(s)                               : 6 channels\nChannel positions                        : Front: L C R, Side: L R, LFE\nSampling rate                            : 48.0 KHz\nBit depth                                : 16 bits\nCompression mode                         : Lossy\nStream size                              : 396 MiB (30%)\nAlignment                                : Aligned on interleaves\nInterleave, duration                     : 64 ms (1.53 video frames)\nInterleave, preload duration             : 192 ms\n\nSource: DVD (perfect a/v/sync quality,sample included)\nThis torrent is not seedbox supported,please seed it to the MAX\nUploader Note: Want a better movie? Watch Battle Royale (2000)\n",
  "parsed": {
    "xt": "urn:btih:d9f7719922d00d4f2ae59c514dc2aee7a2938dc9",
    "dn": "The Hunger Games (2012) DVDRip XviD-MAX",
    "tr": [
      "udp://exodus.desync.com:6969",
      "udp://open.demonii.com:1337",
      "udp://tracker.coppersurfer.tk:6969",
      "udp://tracker.openbittorrent.com:80"
    ],
    "infoHash": "d9f7719922d00d4f2ae59c514dc2aee7a2938dc9",
    "infoHashBuffer": {
      "type": "Buffer",
      "data": [
        217,
        247,
        113,
        153,
        34,
        208,
        13,
        79,
        42,
        229,
        156,
        81,
        77,
        194,
        174,
        231,
        162,
        147,
        141,
        201
      ]
    },
    "name": "The Hunger Games (2012) DVDRip XviD-MAX",
    "announce": [
      "udp://exodus.desync.com:6969",
      "udp://open.demonii.com:1337",
      "udp://tracker.coppersurfer.tk:6969",
      "udp://tracker.openbittorrent.com:80"
    ],
    "urlList": []
  },
  "previous": 4,
  "peers": 49,
  "last_updated": "2016-12-27T14:41:29.203Z"
}